# xmcd
#
# Track frame offsets:
#	150
#	6535
#	16889
#	28235
#	40082
#	55205
#	73715
#	87926
#	101196
#	121311
#	142078
#	155609
#	169127
#	187800
#	201771
#	220056
#	237018
#	253088
#
# Disc length: 3680 seconds
#
# Revision: 8
# Processed by: cddbd v1.5.2PL0 Copyright (c) Steve Scherf et al.
# Submitted via: EZCDAudioConverter 2.1.7.1
#
DISCID=fe0e5e12
DTITLE=The Cure - The Head On The Door 2/2
DYEAR=2006
DGENRE=
TTITLE0=In Between Days [RS Home Demo]
TTITLE1=Inwood [RS Home Demo]
TTITLE2=Push [RS Home Demo]
TTITLE3=Innsbruck [RS Home Demo]
TTITLE4=Stop Dead [Studio Demo]
TTITLE5=Mansolidgone [Studio Demo]
TTITLE6=Screw [Studio Demo]
TTITLE7=Lime Time [Studio Demo]
TTITLE8=Kyoto Song [Studio Demo]
TTITLE9=A Few Hours After This... [Studio Demo]
TTITLE10=Six Different Ways [Studio Demo]
TTITLE11=A Man Inside My Mouth [Studio Demo]
TTITLE12=A Night Like This [Studio Demo]
TTITLE13=The Exploding Boy [Studio Demo]
TTITLE14=Close To Me [Studio Demo]
TTITLE15=The Baby Screams [Live Bootleg]
TTITLE16=The Blood [Live Bootleg]
TTITLE17=Sinking [Live Bootleg]
EXTD=
EXTT0=
EXTT1=
EXTT2=
EXTT3=
EXTT4=
EXTT5=
EXTT6=
EXTT7=
EXTT8=
EXTT9=
EXTT10=
EXTT11=
EXTT12=
EXTT13=
EXTT14=
EXTT15=
EXTT16=
EXTT17=
PLAYORDER=
